<svg width="67" height="67" viewBox="0 0 67 67" fill="none" xmlns="http://www.w3.org/2000/svg">
<path fill-rule="evenodd" clip-rule="evenodd" d="M60.4849 21.0905C59.9774 21.0825 59.3946 21.0741 58.7346 21.0651C56.388 15.203 53.6106 10.0606 51.8758 7.05447C50.4498 4.58343 47.8192 3.17708 45.0576 3.17708H42.8726C42.2661 1.33218 40.4701 0.334968 38.7787 0.285416C37.6093 0.251159 35.8752 0.21875 33.5 0.21875C31.1248 0.21875 29.3907 0.251173 28.2213 0.285416C26.5299 0.334968 24.7339 1.33218 24.1274 3.17708H21.9424C19.1808 3.17708 16.5502 4.58343 15.1242 7.05447C13.3894 10.0606 10.612 15.203 8.26546 21.0651C7.60546 21.0741 7.02267 21.0825 6.51509 21.0905C4.52715 21.1216 1.36364 21.9245 0.530558 25.0812C0.338947 25.8071 0.21875 26.6405 0.21875 27.5833C0.21875 28.5262 0.338947 29.3595 0.530558 30.0855C1.36363 33.2422 4.52715 34.0451 6.51509 34.0761C10.5146 34.1387 19.1846 34.2396 33.5 34.2396C47.8154 34.2396 56.4854 34.1387 60.4849 34.0761C62.4729 34.0451 65.6364 33.2422 66.4694 30.0855C66.661 29.3595 66.7812 28.5262 66.7812 27.5833C66.7812 26.6405 66.661 25.8071 66.4694 25.0812C65.6364 21.9245 62.4729 21.1216 60.4849 21.0905ZM38.7787 10.5063C37.6093 10.5405 35.8752 10.5729 33.5 10.5729C31.1248 10.5729 29.3907 10.5405 28.2213 10.5063C26.5299 10.4567 24.7339 9.45949 24.1274 7.61458H21.9424C20.674 7.61458 19.5559 8.25308 18.9676 9.27251C17.4623 11.8809 15.1614 16.1272 13.0878 21.0108C17.8594 20.9663 24.5851 20.9271 33.5 20.9271C42.4149 20.9271 49.1406 20.9663 53.9122 21.0108C51.8386 16.1272 49.5377 11.8809 48.0324 9.27251C47.4441 8.25308 46.326 7.61458 45.0576 7.61458H42.8726C42.2661 9.45949 40.4701 10.4567 38.7787 10.5063ZM5.5894 37.7238C5.61694 37.9376 5.64516 38.1546 5.67408 38.3744C6.3885 43.8059 7.52796 51.0335 9.22698 58.1586C10.2312 62.3699 13.7366 65.488 18.0574 65.9525C21.8371 66.3587 27.2624 66.7807 33.4999 66.7807C39.7373 66.7807 45.1625 66.3587 48.9422 65.9525C53.2631 65.488 56.7685 62.3699 57.7727 58.1586C59.4716 51.0335 60.6111 43.8059 61.3255 38.3744C61.3545 38.1546 61.3826 37.9378 61.4102 37.7239C61.0928 37.7539 60.801 37.769 60.5432 37.773C56.5225 37.8359 47.8331 37.9369 33.5004 37.9369C19.1678 37.9369 10.4784 37.8359 6.4577 37.773C6.19951 37.769 5.90733 37.7539 5.5894 37.7238ZM21.3532 43.1372C22.5663 42.9639 23.6902 43.8068 23.8634 45.0199L25.3425 55.3741C25.5159 56.5871 24.6729 57.711 23.4599 57.8842C22.2468 58.0576 21.1229 57.2146 20.9497 56.0015L19.4705 45.6474C19.2972 44.4343 20.1402 43.3104 21.3532 43.1372ZM43.1366 45.0199C43.3098 43.8068 44.4337 42.9639 45.6468 43.1372C46.8598 43.3104 47.7028 44.4343 47.5294 45.6474L46.0503 56.0015C45.8771 57.2146 44.7532 58.0576 43.5401 57.8842C42.3271 57.711 41.4841 56.5871 41.6575 55.3741L43.1366 45.0199ZM33.5 43.1146C34.7253 43.1146 35.7187 44.108 35.7187 45.3333V55.6875C35.7187 56.9128 34.7253 57.9062 33.5 57.9062C32.2747 57.9062 31.2812 56.9128 31.2812 55.6875V45.3333C31.2812 44.108 32.2747 43.1146 33.5 43.1146Z" fill="black"/>
</svg>
