<svg width="67" height="65" viewBox="0 0 67 65" fill="none" xmlns="http://www.w3.org/2000/svg">
<path d="M33.4887 0.797651C25.7658 0.790344 18.2927 3.53349 12.4086 8.53544C6.52442 13.5374 2.61383 20.4713 1.37751 28.0945C0.141218 35.7178 1.66001 43.5322 5.66174 50.1373C9.66348 56.7427 15.8866 61.707 23.2159 64.1409C24.8381 64.4234 25.3524 63.4711 25.3524 62.612C25.3524 61.8345 25.3694 59.6812 25.3524 56.9598C16.3091 58.9212 14.441 52.6782 14.441 52.6782C13.8448 50.7142 12.5658 49.0282 10.835 47.9248C7.8846 45.9072 11.0554 45.9465 11.0554 45.9465C12.0856 46.0879 13.0697 46.463 13.9327 47.0429C14.7957 47.6227 15.5148 48.3925 16.0349 49.2927C16.4749 50.0944 17.0695 50.8009 17.7843 51.3715C18.4991 51.9419 19.3199 52.3649 20.1993 52.6164C21.0786 52.8675 21.9991 52.9418 22.9074 52.8353C23.8156 52.7285 24.6938 52.4427 25.4909 51.9942C25.6408 50.3515 26.3724 48.8161 27.5539 47.665C20.339 46.8396 12.7511 44.0532 12.7511 31.5959C12.7053 28.3666 13.9045 25.2435 16.0999 22.8747C15.1051 20.0727 15.2183 16.9964 16.4165 14.2751C16.4165 14.2751 19.1493 13.4018 25.3524 17.6098C30.6801 16.1479 36.303 16.1479 41.6304 17.6098C47.8479 13.4046 50.558 14.2751 50.558 14.2751C51.7565 16.996 51.8718 20.0718 50.8802 22.8747C53.0762 25.245 54.2737 28.3708 54.2234 31.6016C54.2234 44.0928 46.624 46.837 39.3838 47.6366C40.1616 48.4179 40.7624 49.3572 41.1461 50.3908C41.5298 51.4245 41.6872 52.5282 41.6079 53.6278V62.6259C41.6079 63.4936 42.1336 64.4544 43.784 64.1409C51.1151 61.7064 57.3394 56.7403 61.3412 50.1326C65.3426 43.5251 66.8599 35.708 65.6207 28.0835C64.3814 20.4586 60.4667 13.5245 54.5784 8.5244C48.6901 3.52426 41.2135 0.78496 33.4887 0.797651Z" fill="black"/>
</svg>
