<svg width="66" height="66" viewBox="0 0 66 66" fill="none" xmlns="http://www.w3.org/2000/svg">
<path fill-rule="evenodd" clip-rule="evenodd" d="M7.39583 14.7917C11.4804 14.7917 14.7917 11.4804 14.7917 7.39583C14.7917 3.31123 11.4804 0 7.39583 0C3.31123 0 0 3.31123 0 7.39583C0 11.4804 3.31123 14.7917 7.39583 14.7917ZM14.7917 65.0833V20.7083H0V65.0833H14.7917ZM20.7083 20.7083H34.0208V26.4657C36.1405 23.681 40.6647 20.7083 48.8125 20.7083C61.623 20.7083 65.0833 33.4895 65.0833 41.4167V65.0833H50.2917V41.4167C50.2917 38.4583 48.8125 32.5417 42.8958 32.5417C38.6944 32.5417 35.7361 35.5251 34.0208 38.3143V65.0833H20.7083V20.7083Z" fill="black"/>
</svg>
