<svg width="71" height="71" viewBox="0 0 71 71" fill="none" xmlns="http://www.w3.org/2000/svg">
<path fill-rule="evenodd" clip-rule="evenodd" d="M33.0986 52.0496L18.8464 37.7974C20.4133 35.1734 21.9745 32.4603 23.5245 29.7664L23.5246 29.7663C28.6782 20.8099 33.7095 12.0662 38.423 7.51819C51.2229 -5.28195 68.7559 2.13997 68.7559 2.13997C68.7559 2.13997 76.1779 19.6729 63.3776 32.473C58.8671 37.1477 50.261 42.1037 41.373 47.2219H41.3729L41.3727 47.222L41.3725 47.2222C38.6034 48.8168 35.807 50.4271 33.0986 52.0496ZM43.9543 18.9202C43.9543 14.4901 47.5457 10.8988 51.976 10.8988C56.4059 10.8988 59.9975 14.4901 59.9975 18.9202C59.9975 23.3504 56.4059 26.9418 51.976 26.9418C47.5457 26.9418 43.9543 23.3504 43.9543 18.9202ZM23.2076 17.7444C16.017 15.8309 9.26967 19.374 3.28292 24.8654C2.07872 25.97 2.33021 27.902 3.72992 28.7453L13.3922 34.5659L13.4034 34.5471C14.7972 32.2131 16.3552 29.5094 17.9337 26.7702L17.9339 26.77L17.9342 26.7695L17.9342 26.7694V26.7694L17.9345 26.769C19.7369 23.6412 21.566 20.4671 23.2076 17.7444ZM36.3302 57.5034L42.1509 67.1655C42.9941 68.5652 44.9262 68.8167 46.0308 67.6128C51.5242 61.6239 55.0676 54.8744 53.1501 47.6809C50.506 49.2743 47.7257 50.8786 44.9716 52.4649L44.5513 52.7068C41.7695 54.3089 39.0164 55.8942 36.3562 57.4877L36.3302 57.5034ZM13.1939 47.3818C14.5558 47.3578 15.9086 47.6083 17.1716 48.1185C18.4345 48.6286 19.5818 49.3879 20.5449 50.3511C21.5081 51.3142 22.2674 52.4614 22.7775 53.7247C23.2877 54.9875 23.5382 56.34 23.5141 57.7022C23.4901 59.0639 23.192 60.4068 22.6377 61.6513C22.0861 62.8893 21.2922 64.004 20.3028 64.9295C19.1781 66.0067 17.4182 66.849 15.7866 67.4972C14.047 68.1889 12.0619 68.8066 10.2085 69.3122C8.349 69.8199 6.57294 70.2281 5.2317 70.4944C4.56564 70.6262 3.9781 70.7292 3.52775 70.7905C3.31157 70.82 3.07279 70.8473 2.85241 70.857C2.7525 70.8615 2.57192 70.8671 2.36542 70.8473C2.26643 70.8377 2.0748 70.8149 1.8469 70.7469C1.69647 70.7018 1.11211 70.5238 0.625283 69.9558C0.208305 69.4694 0.0947839 68.9618 0.0674362 68.8396L0.0669382 68.837C0.0230988 68.6413 0.010195 68.478 0.00512361 68.3897C-0.00539707 68.2072 0.00255746 68.0454 0.00878264 67.949C0.0222868 67.7406 0.0510555 67.5109 0.0823533 67.2958C0.147134 66.85 0.252381 66.2673 0.3872 65.603C0.658374 64.2667 1.07008 62.4988 1.58017 60.6472C2.08848 58.8017 2.70757 56.8259 3.39971 55.0935C4.04927 53.4676 4.89149 51.7154 5.9666 50.5932C6.89234 49.6038 8.00699 48.8099 9.24477 48.2583C10.4889 47.704 11.8321 47.4059 13.1939 47.3818Z" fill="black"/>
</svg>
